<svg xmlns="http://www.w3.org/2000/svg" width="24" height="24"><path d="M5.8 22.5H1.6c-.3 0-.5-.2-.5-.5V8.4c0-.3.2-.5.5-.5h4.3c.3 0 .5.2.5.5V22c-.1.3-.3.5-.6.5zm-3.7-1h3.3V8.9H2.1v12.6z" fill="white"/><path d="M5.8 22.5H1.6c-.3 0-.5-.2-.5-.5V8.4c0-.3.2-.5.5-.5h4.3c.3 0 .5.2.5.5V22c-.1.3-.3.5-.6.5zm-3.7-1h3.3V8.9H2.1v12.6z" fill="white"/><path d="M5.8 22.5H1.6c-.3 0-.5-.2-.5-.5V8.4c0-.3.2-.5.5-.5h4.3c.3 0 .5.2.5.5V22c-.1.3-.3.5-.6.5zm-3.7-1h3.3V8.9H2.1v12.6zM23 22.5h-4.9c-.3 0-.5-.2-.5-.5v-5.8c0-1.2-.3-2.6-1.9-2.6-1.1 0-1.6.7-1.9 1.4-.1.2-.1.5-.1.8v6.3c0 .3-.2.5-.5.5H8.5c-.1 0-.3-.1-.4-.1S8 22.1 8 22V8.4c0-.1 0-.3.1-.4.1 0 .2-.1.4-.1h4.8c.3 0 .5.2.5.5V9c.8-.7 2.1-1.3 3.8-1.3 3.7 0 5.9 2.6 5.9 6.7V22c0 .3-.2.5-.5.5zm-4.4-1h3.9v-7.1c0-3.5-1.8-5.7-4.9-5.7-2.3 0-3.6 1.2-3.8 1.9-.1.2-.3.4-.6.3-.2 0-.4-.2-.4-.5V8.9H9v12.6h3.8v-5.8c0-.4 0-.8.1-1.2.5-1.3 1.5-2 2.8-2 1.8 0 2.9 1.3 2.9 3.6v5.4z" fill="white"/><path d="M23 22.5h-4.9c-.3 0-.5-.2-.5-.5v-5.8c0-1.2-.3-2.6-1.9-2.6-1.1 0-1.6.7-1.9 1.4-.1.2-.1.5-.1.8v6.3c0 .3-.2.5-.5.5H8.5c-.1 0-.3-.1-.4-.1S8 22.1 8 22V8.4c0-.1 0-.3.1-.4.1 0 .2-.1.4-.1h4.8c.3 0 .5.2.5.5V9c.8-.7 2.1-1.3 3.8-1.3 3.7 0 5.9 2.6 5.9 6.7V22c0 .3-.2.5-.5.5zm-4.4-1h3.9v-7.1c0-3.5-1.8-5.7-4.9-5.7-2.3 0-3.6 1.2-3.8 1.9-.1.2-.3.4-.6.3-.2 0-.4-.2-.4-.5V8.9H9v12.6h3.8v-5.8c0-.4 0-.8.1-1.2.5-1.3 1.5-2 2.8-2 1.8 0 2.9 1.3 2.9 3.6v5.4zM3.6 7.2C1.8 7.2.5 6 .5 4.4c0-1.7 1.3-2.9 3.1-2.9s3 1.2 3.1 2.8c0 1.7-1.3 2.9-3.1 2.9zm0-4.7c-1.3 0-2.1.7-2.1 1.9 0 1.1.8 1.9 2.1 1.9s2.1-.7 2.1-1.9-.8-1.9-2.1-1.9z" fill="white"/></svg>